RobotoSerifDisplay-SuperWidth1800 00m.ufo
<glyph name="dollar" format="2">
  <advance width="707"/>
  <unicode hex="0024"/>
  <outline>
    <contour>
      <point x="314" y="790" type="line"/>
      <point x="314" y="684" type="line"/>
      <point x="315" y="666" type="line"/>
      <point x="315" y="40" type="line"/>
      <point x="314" y="23" type="line"/>
      <point x="314" y="-120" type="line"/>
      <point x="395" y="-120" type="line"/>
      <point x="395" y="20" type="line"/>
      <point x="393" y="40" type="line"/>
      <point x="393" y="667" type="line"/>
      <point x="395" y="683" type="line"/>
      <point x="395" y="790" type="line"/>
    </contour>
    <contour>
      <point x="352" y="56" type="curve" smooth="yes"/>
      <point x="237" y="56"/>
      <point x="167" y="82"/>
      <point x="126" y="132" type="curve"/>
      <point x="124" y="117"/>
      <point x="190" y="73"/>
      <point x="193" y="72" type="curve"/>
      <point x="193" y="206" type="line"/>
      <point x="14" y="206" type="line"/>
      <point x="14" y="90" type="line"/>
      <point x="70" y="51"/>
      <point x="195" y="12"/>
      <point x="357" y="12" type="curve" smooth="yes"/>
      <point x="569" y="12"/>
      <point x="693" y="86"/>
      <point x="693" y="224" type="curve" smooth="yes"/>
      <point x="693" y="354"/>
      <point x="576" y="402"/>
      <point x="372" y="440" type="curve" smooth="yes"/>
      <point x="286" y="463"/>
      <point x="198" y="476"/>
      <point x="198" y="559" type="curve" smooth="yes"/>
      <point x="198" y="620"/>
      <point x="250" y="655"/>
      <point x="361" y="655" type="curve" smooth="yes"/>
      <point x="436" y="655"/>
      <point x="495" y="636"/>
      <point x="537" y="601" type="curve"/>
      <point x="541" y="591"/>
      <point x="496" y="650"/>
      <point x="492" y="655" type="curve"/>
      <point x="492" y="526" type="line"/>
      <point x="655" y="526" type="line"/>
      <point x="655" y="637" type="line"/>
      <point x="611" y="659"/>
      <point x="497" y="698"/>
      <point x="364" y="698" type="curve" smooth="yes"/>
      <point x="165" y="698"/>
      <point x="33" y="627"/>
      <point x="33" y="507" type="curve" smooth="yes"/>
      <point x="33" y="384"/>
      <point x="148" y="333"/>
      <point x="308" y="298" type="curve" smooth="yes"/>
      <point x="449" y="267"/>
      <point x="515" y="250"/>
      <point x="515" y="168" type="curve" smooth="yes"/>
      <point x="515" y="86"/>
      <point x="457" y="56"/>
    </contour>
  </outline>
</glyph>
<glyph name="comma" format="2">
  <advance width="334"/>
  <unicode hex="002C"/>
  <outline>
    <contour>
      <point x="126" y="-168.0" type="line"/>
      <point x="241" y="-94"/>
      <point x="306" y="-30"/>
      <point x="306.0" y="76" type="curve" smooth="yes"/>
      <point x="306" y="171"/>
      <point x="254" y="214.0"/>
      <point x="167" y="214.0" type="curve" smooth="yes"/>
      <point x="79" y="214.0"/>
      <point x="32" y="170"/>
      <point x="32" y="104" type="curve" smooth="yes"/>
      <point x="32" y="38"/>
      <point x="78" y="-8"/>
      <point x="167" y="-8" type="curve" smooth="yes"/>
      <point x="221.0" y="-8"/>
      <point x="251" y="15"/>
      <point x="262" y="32" type="curve"/>
      <point x="259" y="36"/>
      <point x="257" y="36"/>
      <point x="257" y="32" type="curve"/>
      <point x="228" y="-22"/>
      <point x="149" y="-63"/>
      <point x="54" y="-92" type="curve"/>
    </contour>
  </outline>
</glyph>
<glyph name="one" format="2">
  <advance width="659"/>
  <unicode hex="0031"/>
  <outline>
    <contour>
      <point x="488" y="93" type="curve" smooth="yes"/>
      <point x="488" y="609" type="line"/>
      <point x="318" y="609" type="line"/>
      <point x="241" y="550"/>
      <point x="185" y="524"/>
      <point x="10" y="524" type="curve"/>
      <point x="10" y="404" type="line"/>
      <point x="116" y="410"/>
      <point x="185" y="468"/>
      <point x="225" y="531" type="curve"/>
      <point x="225" y="528"/>
      <point x="203" y="538"/>
      <point x="203" y="535" type="curve"/>
      <point x="203" y="93" type="line" smooth="yes"/>
      <point x="203" y="49"/>
      <point x="151" y="38"/>
      <point x="91" y="38" type="curve" smooth="yes"/>
      <point x="25" y="38" type="line"/>
      <point x="25" y="0" type="line"/>
      <point x="649" y="0" type="line"/>
      <point x="649" y="38" type="line"/>
      <point x="599" y="38" type="line" smooth="yes"/>
      <point x="534" y="38"/>
      <point x="488" y="49"/>
    </contour>
  </outline>
</glyph>
<glyph name="six" format="2">
  <advance width="700"/>
  <unicode hex="0036"/>
  <outline>
    <contour>
      <point x="603" y="705" type="line"/>
      <point x="408" y="666"/>
      <point x="295" y="533"/>
      <point x="295" y="271" type="curve" smooth="yes"/>
      <point x="295" y="91"/>
      <point x="313.0" y="34"/>
      <point x="356" y="34" type="curve" smooth="yes"/>
      <point x="399" y="34"/>
      <point x="415" y="96"/>
      <point x="415" y="221" type="curve" smooth="yes"/>
      <point x="415" y="327"/>
      <point x="400" y="385"/>
      <point x="352" y="385" type="curve" smooth="yes"/>
      <point x="307" y="385"/>
      <point x="275" y="334"/>
      <point x="257" y="281" type="curve"/>
      <point x="257" y="287"/>
      <point x="251" y="326"/>
      <point x="251" y="330" type="curve"/>
      <point x="262" y="389"/>
      <point x="316" y="453"/>
      <point x="444" y="453" type="curve" smooth="yes"/>
      <point x="585" y="453"/>
      <point x="690" y="374"/>
      <point x="690" y="241" type="curve" smooth="yes"/>
      <point x="690" y="86"/>
      <point x="550" y="-10"/>
      <point x="356" y="-10" type="curve" smooth="yes"/>
      <point x="144" y="-10"/>
      <point x="15" y="120"/>
      <point x="15" y="296" type="curve" smooth="yes"/>
      <point x="15" y="536"/>
      <point x="253" y="699"/>
      <point x="597" y="740" type="curve"/>
    </contour>
  </outline>
</glyph>
<glyph name="nine" format="2">
  <advance width="700"/>
  <unicode hex="0039"/>
  <outline>
    <contour>
      <point x="97" y="-65" type="line"/>
      <point x="292" y="-26"/>
      <point x="405" y="97"/>
      <point x="405" y="359" type="curve" smooth="yes"/>
      <point x="405" y="539"/>
      <point x="387.0" y="596.0"/>
      <point x="344" y="596" type="curve" smooth="yes"/>
      <point x="301" y="596"/>
      <point x="285" y="534"/>
      <point x="285" y="409" type="curve" smooth="yes"/>
      <point x="285" y="303"/>
      <point x="300" y="245"/>
      <point x="348" y="245" type="curve" smooth="yes"/>
      <point x="393" y="245"/>
      <point x="425" y="296"/>
      <point x="443" y="349" type="curve"/>
      <point x="443" y="343"/>
      <point x="449" y="304"/>
      <point x="449" y="300" type="curve"/>
      <point x="438" y="241"/>
      <point x="384" y="177"/>
      <point x="256" y="177" type="curve" smooth="yes"/>
      <point x="115" y="177"/>
      <point x="10" y="256"/>
      <point x="10" y="389" type="curve" smooth="yes"/>
      <point x="10" y="544"/>
      <point x="150" y="640"/>
      <point x="344" y="640" type="curve" smooth="yes"/>
      <point x="556" y="640"/>
      <point x="685" y="520"/>
      <point x="685" y="344" type="curve" smooth="yes"/>
      <point x="685" y="104"/>
      <point x="447" y="-59"/>
      <point x="103" y="-100" type="curve"/>
    </contour>
  </outline>
</glyph>
<glyph name="J" format="2">
  <advance width="750"/>
  <unicode hex="004A"/>
  <outline>
    <contour>
      <point x="250" y="710" type="line"/>
      <point x="250" y="672" type="line"/>
      <point x="276" y="672" type="line" smooth="yes"/>
      <point x="314" y="672"/>
      <point x="341" y="668"/>
      <point x="341" y="634" type="curve" smooth="yes"/>
      <point x="341" y="200" type="line" smooth="yes"/>
      <point x="341" y="74"/>
      <point x="312" y="34"/>
      <point x="253" y="34" type="curve" smooth="yes"/>
      <point x="212" y="34"/>
      <point x="200" y="53"/>
      <point x="182" y="78" type="curve"/>
      <point x="176" y="54"/>
      <point x="201" y="10"/>
      <point x="235" y="7" type="curve"/>
      <point x="235" y="202" type="line"/>
      <point x="10" y="202" type="line"/>
      <point x="10" y="60" type="line"/>
      <point x="65" y="26"/>
      <point x="123" y="-10"/>
      <point x="283" y="-10" type="curve" smooth="yes"/>
      <point x="493" y="-10"/>
      <point x="659" y="53"/>
      <point x="659" y="226" type="curve" smooth="yes"/>
      <point x="659" y="634" type="line" smooth="yes"/>
      <point x="659" y="668"/>
      <point x="683" y="672"/>
      <point x="715" y="672" type="curve" smooth="yes"/>
      <point x="730" y="672" type="line"/>
      <point x="730" y="710" type="line"/>
    </contour>
  </outline>
</glyph>
<glyph name="L" format="2">
  <advance width="772"/>
  <unicode hex="004C"/>
  <outline>
    <contour>
      <point x="490" y="710" type="line"/>
      <point x="490" y="672" type="line"/>
      <point x="467" y="672" type="line" smooth="yes"/>
      <point x="434" y="672"/>
      <point x="408" y="668"/>
      <point x="408" y="650" type="curve" smooth="yes"/>
      <point x="408" y="44" type="line"/>
      <point x="518" y="44" type="line" smooth="yes"/>
      <point x="627" y="44"/>
      <point x="659" y="55"/>
      <point x="675" y="119" type="curve" smooth="yes"/>
      <point x="704" y="236" type="line"/>
      <point x="752" y="236" type="line"/>
      <point x="752" y="0" type="line"/>
      <point x="20" y="0" type="line"/>
      <point x="20" y="38" type="line"/>
      <point x="34" y="38" type="line" smooth="yes"/>
      <point x="67" y="38"/>
      <point x="90" y="45"/>
      <point x="90" y="76" type="curve" smooth="yes"/>
      <point x="90" y="634" type="line" smooth="yes"/>
      <point x="90" y="665"/>
      <point x="66" y="672"/>
      <point x="34" y="672" type="curve" smooth="yes"/>
      <point x="20" y="672" type="line"/>
      <point x="20" y="710" type="line"/>
    </contour>
  </outline>
</glyph>
<glyph name="N" format="2">
  <advance width="822"/>
  <unicode hex="004E"/>
  <guideline x="394" y="710" angle="304.0888716157166" identifier="vjcvGEtd9N"/>
  <outline>
    <contour>
      <point x="20" y="0" type="line"/>
      <point x="222" y="0" type="line"/>
      <point x="222" y="38" type="line"/>
      <point x="202" y="38" type="line" smooth="yes"/>
      <point x="169" y="38"/>
      <point x="138" y="45"/>
      <point x="138" y="64" type="curve" smooth="yes"/>
      <point x="138" y="619" type="line"/>
      <point x="96" y="599" type="line"/>
      <point x="504" y="0" type="line"/>
      <point x="731" y="0" type="line"/>
      <point x="731" y="618" type="line" smooth="yes"/>
      <point x="731" y="659"/>
      <point x="755" y="672"/>
      <point x="787" y="672" type="curve" smooth="yes"/>
      <point x="802" y="672" type="line"/>
      <point x="802" y="710" type="line"/>
      <point x="599" y="710" type="line"/>
      <point x="599" y="672" type="line"/>
      <point x="618" y="672" type="line" smooth="yes"/>
      <point x="650" y="672"/>
      <point x="683" y="665"/>
      <point x="683" y="646" type="curve"/>
      <point x="683" y="226" type="line"/>
      <point x="712" y="240" type="line"/>
      <point x="394" y="710" type="line"/>
      <point x="20" y="710" type="line"/>
      <point x="20" y="672" type="line"/>
      <point x="32" y="672" type="line" smooth="yes"/>
      <point x="65" y="672"/>
      <point x="90" y="666"/>
      <point x="90" y="638" type="curve" smooth="yes"/>
      <point x="90" y="94" type="line" smooth="yes"/>
      <point x="90" y="54"/>
      <point x="67" y="38"/>
      <point x="34" y="38" type="curve" smooth="yes"/>
      <point x="20" y="38" type="line"/>
    </contour>
  </outline>
</glyph>
<glyph name="T" format="2">
  <advance width="860"/>
  <unicode hex="0054"/>
  <outline>
    <contour>
      <point x="271" y="76" type="line" smooth="yes"/>
      <point x="271" y="45"/>
      <point x="248" y="38"/>
      <point x="216" y="38" type="curve" smooth="yes"/>
      <point x="195" y="38" type="line"/>
      <point x="195" y="0" type="line"/>
      <point x="665" y="0" type="line"/>
      <point x="665" y="38" type="line"/>
      <point x="644" y="38" type="line" smooth="yes"/>
      <point x="612" y="38"/>
      <point x="589" y="45"/>
      <point x="589" y="76" type="curve" smooth="yes"/>
      <point x="589" y="666" type="line"/>
      <point x="643" y="666" type="line" smooth="yes"/>
      <point x="720.0" y="666.0"/>
      <point x="750" y="647"/>
      <point x="763" y="592" type="curve" smooth="yes"/>
      <point x="792" y="468" type="line"/>
      <point x="840" y="468" type="line"/>
      <point x="840" y="710" type="line"/>
      <point x="20" y="710" type="line"/>
      <point x="20" y="468" type="line"/>
      <point x="68" y="468" type="line"/>
      <point x="97" y="592" type="line" smooth="yes"/>
      <point x="110" y="647"/>
      <point x="140.0" y="666.0"/>
      <point x="217" y="666" type="curve" smooth="yes"/>
      <point x="271" y="666" type="line"/>
    </contour>
  </outline>
</glyph>
<glyph name="X" format="2">
  <advance width="835"/>
  <unicode hex="0058"/>
  <guideline x="6" y="38" angle="90" identifier="BiOSb5DQAt"/>
  <guideline x="841" y="38" angle="90" identifier="3kuIEzk5Pz"/>
  <guideline x="701" y="650" angle="234.08551219904427" identifier="kZhICrIR3V"/>
  <outline>
    <contour>
      <point x="25" y="672" type="line"/>
      <point x="32" y="672" type="line" smooth="yes"/>
      <point x="54" y="672"/>
      <point x="65" y="666"/>
      <point x="86" y="638" type="curve"/>
      <point x="269" y="310" type="line"/>
      <point x="279" y="300" type="line"/>
      <point x="415" y="50" type="line"/>
      <point x="415" y="42"/>
      <point x="389" y="38"/>
      <point x="371" y="38" type="curve" smooth="yes"/>
      <point x="350" y="38" type="line"/>
      <point x="350" y="0" type="line"/>
      <point x="825" y="0" type="line"/>
      <point x="825" y="38" type="line"/>
      <point x="810" y="38" type="line" smooth="yes"/>
      <point x="793" y="38"/>
      <point x="780" y="44"/>
      <point x="766" y="68" type="curve"/>
      <point x="572" y="429" type="line"/>
      <point x="559" y="446" type="line"/>
      <point x="441" y="660" type="line"/>
      <point x="441" y="668"/>
      <point x="465" y="672"/>
      <point x="484" y="672" type="curve" smooth="yes"/>
      <point x="504" y="672" type="line"/>
      <point x="504" y="710" type="line"/>
      <point x="25" y="710" type="line"/>
    </contour>
    <contour>
      <point x="538" y="355" type="line"/>
      <point x="735" y="627" type="line" smooth="yes"/>
      <point x="756" y="656"/>
      <point x="777" y="672"/>
      <point x="801" y="672" type="curve" smooth="yes"/>
      <point x="810" y="672" type="line"/>
      <point x="810" y="710" type="line"/>
      <point x="629" y="710" type="line"/>
      <point x="629" y="672" type="line"/>
      <point x="646" y="672" type="line" smooth="yes"/>
      <point x="669" y="672"/>
      <point x="695" y="663"/>
      <point x="695" y="650" type="curve"/>
      <point x="505" y="387" type="line"/>
    </contour>
    <contour>
      <point x="282" y="365" type="line"/>
      <point x="85" y="83" type="line" smooth="yes"/>
      <point x="65" y="54"/>
      <point x="43" y="38"/>
      <point x="19" y="38" type="curve" smooth="yes"/>
      <point x="10" y="38" type="line"/>
      <point x="10" y="0" type="line"/>
      <point x="191" y="0" type="line"/>
      <point x="191" y="38" type="line"/>
      <point x="174" y="38" type="line" smooth="yes"/>
      <point x="151" y="38"/>
      <point x="125" y="47"/>
      <point x="125" y="60" type="curve"/>
      <point x="315" y="333" type="line"/>
    </contour>
  </outline>
</glyph>
<glyph name="Z" format="2">
  <advance width="751"/>
  <unicode hex="005A"/>
  <guideline x="757" y="650" angle="56.84379495433587" identifier="qJ5OVwmISz"/>
  <guideline x="43" y="710" angle="90" identifier="KKyUlAPUs9"/>
  <outline>
    <contour>
      <point x="219" y="44" type="line"/>
      <point x="340" y="13" type="line"/>
      <point x="716" y="650" type="line"/>
      <point x="716" y="710" type="line"/>
      <point x="33" y="710" type="line"/>
      <point x="33" y="502" type="line"/>
      <point x="81" y="502" type="line"/>
      <point x="110" y="591" type="line" smooth="yes"/>
      <point x="131" y="655"/>
      <point x="158" y="666"/>
      <point x="268" y="666" type="curve" smooth="yes"/>
      <point x="486" y="666" type="line"/>
      <point x="382" y="688" type="line"/>
      <point x="15" y="65" type="line"/>
      <point x="15" y="0" type="line"/>
      <point x="736" y="0" type="line"/>
      <point x="736" y="233" type="line"/>
      <point x="688" y="233" type="line"/>
      <point x="659" y="119" type="line" smooth="yes"/>
      <point x="643" y="55"/>
      <point x="611" y="44"/>
      <point x="501" y="44" type="curve" smooth="yes"/>
    </contour>
  </outline>
</glyph>
<glyph name="c" format="2">
  <advance width="704"/>
  <unicode hex="0063"/>
  <guideline x="680" y="359" angle="90" identifier="1NgOQCZx5N"/>
  <outline>
    <contour>
      <point x="468" y="49" type="curve" smooth="yes"/>
      <point x="380" y="49"/>
      <point x="325" y="102"/>
      <point x="325" y="262" type="curve" smooth="yes"/>
      <point x="325" y="422"/>
      <point x="352" y="492"/>
      <point x="414" y="492" type="curve" smooth="yes"/>
      <point x="446" y="492"/>
      <point x="469" y="474"/>
      <point x="483" y="449" type="curve"/>
      <point x="493" y="471"/>
      <point x="471" y="487"/>
      <point x="456" y="490" type="curve"/>
      <point x="456" y="348" type="line"/>
      <point x="661" y="348" type="line"/>
      <point x="661" y="478" type="line"/>
      <point x="628" y="501"/>
      <point x="534" y="534"/>
      <point x="399" y="534" type="curve" smooth="yes"/>
      <point x="155" y="534"/>
      <point x="20" y="424"/>
      <point x="20" y="261" type="curve" smooth="yes"/>
      <point x="20" y="98"/>
      <point x="176" y="-10"/>
      <point x="398" y="-10" type="curve" smooth="yes"/>
      <point x="554" y="-10"/>
      <point x="622" y="44"/>
      <point x="671" y="117" type="curve"/>
      <point x="633" y="146" type="line"/>
      <point x="593" y="87"/>
      <point x="543" y="49"/>
    </contour>
  </outline>
</glyph>
<glyph name="e" format="2">
  <advance width="740"/>
  <unicode hex="0065"/>
  <outline>
    <contour>
      <point x="402" y="-10" type="curve" smooth="yes"/>
      <point x="568" y="-10"/>
      <point x="657" y="44"/>
      <point x="706" y="117" type="curve"/>
      <point x="668" y="146" type="line"/>
      <point x="628" y="87"/>
      <point x="566" y="50"/>
      <point x="480" y="50" type="curve" smooth="yes"/>
      <point x="379" y="50"/>
      <point x="320" y="102"/>
      <point x="320" y="262" type="curve" smooth="yes"/>
      <point x="320" y="422"/>
      <point x="336.0" y="492"/>
      <point x="386" y="492" type="curve" smooth="yes"/>
      <point x="436" y="492"/>
      <point x="445" y="422"/>
      <point x="445" y="296" type="curve"/>
      <point x="470" y="306" type="line"/>
      <point x="298" y="306" type="line"/>
      <point x="298" y="266" type="line"/>
      <point x="720" y="266" type="line"/>
      <point x="715" y="430"/>
      <point x="617" y="534"/>
      <point x="391" y="534" type="curve" smooth="yes"/>
      <point x="157" y="534"/>
      <point x="20" y="424"/>
      <point x="20" y="262" type="curve" smooth="yes"/>
      <point x="20" y="100"/>
      <point x="164" y="-10"/>
    </contour>
  </outline>
</glyph>
<glyph name="l" format="2">
  <advance width="420"/>
  <unicode hex="006C"/>
  <outline>
    <contour>
      <point x="360" y="750" type="line"/>
      <point x="12" y="750" type="line"/>
      <point x="12" y="715" type="line"/>
      <point x="25" y="713" type="line" smooth="yes"/>
      <point x="49" y="709"/>
      <point x="60" y="699"/>
      <point x="60" y="676" type="curve" smooth="yes"/>
      <point x="60" y="68" type="line" smooth="yes"/>
      <point x="60" y="42"/>
      <point x="40" y="35"/>
      <point x="15" y="35" type="curve" smooth="yes"/>
      <point x="12" y="35" type="line"/>
      <point x="12" y="0" type="line"/>
      <point x="408" y="0" type="line"/>
      <point x="408" y="35" type="line"/>
      <point x="404" y="35" type="line" smooth="yes"/>
      <point x="380" y="35"/>
      <point x="360" y="42"/>
      <point x="360" y="68" type="curve" smooth="yes"/>
    </contour>
  </outline>
</glyph>
<glyph name="q" format="2">
  <advance width="833"/>
  <unicode hex="0071"/>
  <outline>
    <contour>
      <point x="398" y="-223" type="line"/>
      <point x="821" y="-223" type="line"/>
      <point x="821" y="-188" type="line"/>
      <point x="818" y="-188" type="line"/>
      <point x="794" y="-188"/>
      <point x="773" y="-181"/>
      <point x="773" y="-155" type="curve" smooth="yes"/>
      <point x="773" y="521" type="line"/>
      <point x="548" y="521" type="line"/>
      <point x="486" y="417" type="line"/>
      <point x="473" y="420" type="line"/>
      <point x="473" y="-179" type="line" smooth="yes"/>
      <point x="473" y="-186"/>
      <point x="432" y="-188"/>
      <point x="405" y="-188" type="curve" smooth="yes"/>
      <point x="398" y="-188" type="line"/>
    </contour>
    <contour>
      <point x="278" y="534" type="curve" smooth="yes"/>
      <point x="118" y="534"/>
      <point x="20" y="421"/>
      <point x="20" y="262" type="curve" smooth="yes"/>
      <point x="20" y="103"/>
      <point x="118" y="-10"/>
      <point x="278" y="-10" type="curve" smooth="yes"/>
      <point x="379" y="-10"/>
      <point x="455" y="29"/>
      <point x="496" y="103" type="curve"/>
      <point x="496" y="177" type="line"/>
      <point x="466" y="107"/>
      <point x="439" y="79"/>
      <point x="400" y="79" type="curve" smooth="yes"/>
      <point x="348" y="79"/>
      <point x="325" y="125"/>
      <point x="325" y="262" type="curve" smooth="yes"/>
      <point x="325" y="399"/>
      <point x="348" y="445"/>
      <point x="400" y="445" type="curve" smooth="yes"/>
      <point x="439" y="445"/>
      <point x="466" y="417"/>
      <point x="496" y="347" type="curve"/>
      <point x="496" y="430" type="line"/>
      <point x="455" y="504"/>
      <point x="379" y="534"/>
    </contour>
  </outline>
</glyph>
<glyph name="u" format="2">
  <advance width="835"/>
  <unicode hex="0075"/>
  <outline>
    <contour>
      <point x="345" y="521" type="line"/>
      <point x="-2" y="521" type="line"/>
      <point x="-2" y="486" type="line"/>
      <point x="12" y="484" type="line" smooth="yes"/>
      <point x="36" y="481"/>
      <point x="45" y="471"/>
      <point x="45" y="447" type="curve" smooth="yes"/>
      <point x="45" y="161" type="line" smooth="yes"/>
      <point x="45" y="49"/>
      <point x="133" y="-10"/>
      <point x="261" y="-10" type="curve" smooth="yes"/>
      <point x="367" y="-10"/>
      <point x="452" y="31"/>
      <point x="499" y="107" type="curve"/>
      <point x="499" y="175" type="line"/>
      <point x="469" y="110"/>
      <point x="432" y="81"/>
      <point x="395" y="81" type="curve" smooth="yes"/>
      <point x="367" y="81"/>
      <point x="345" y="97"/>
      <point x="345" y="146" type="curve" smooth="yes"/>
    </contour>
    <contour>
      <point x="775" y="521" type="line"/>
      <point x="418" y="521" type="line"/>
      <point x="418" y="486" type="line"/>
      <point x="437" y="484" type="line" smooth="yes"/>
      <point x="462" y="481"/>
      <point x="475" y="471"/>
      <point x="475" y="447" type="curve" smooth="yes"/>
      <point x="475" y="110" type="line"/>
      <point x="483" y="116" type="line"/>
      <point x="483" y="0" type="line"/>
      <point x="823" y="0" type="line"/>
      <point x="823" y="35" type="line"/>
      <point x="809" y="36" type="line" smooth="yes"/>
      <point x="784" y="38"/>
      <point x="775" y="44"/>
      <point x="775" y="69" type="curve" smooth="yes"/>
    </contour>
  </outline>
</glyph>
<glyph name="braceleft" format="2">
  <advance width="451"/>
  <unicode hex="007B"/>
  <outline>
    <contour>
      <point x="333" y="220" type="curve" smooth="yes"/>
      <point x="333" y="260"/>
      <point x="313" y="281"/>
      <point x="136" y="304" type="curve"/>
      <point x="136" y="308" type="line"/>
      <point x="315" y="332"/>
      <point x="333" y="353"/>
      <point x="333" y="394" type="curve" smooth="yes"/>
      <point x="333" y="444"/>
      <point x="259" y="533"/>
      <point x="259" y="616" type="curve" smooth="yes"/>
      <point x="259" y="688"/>
      <point x="315" y="720"/>
      <point x="424" y="719" type="curve"/>
      <point x="416" y="749" type="line"/>
      <point x="250" y="755"/>
      <point x="81" y="731"/>
      <point x="81" y="610" type="curve" smooth="yes"/>
      <point x="81" y="528"/>
      <point x="164" y="432"/>
      <point x="227" y="356" type="curve"/>
      <point x="235" y="376" type="line"/>
      <point x="17" y="322" type="line"/>
      <point x="17" y="292" type="line"/>
      <point x="235" y="236" type="line"/>
      <point x="227" y="257" type="line"/>
      <point x="156" y="176"/>
      <point x="81" y="85"/>
      <point x="81" y="3" type="curve" smooth="yes"/>
      <point x="81" y="-118"/>
      <point x="250" y="-142"/>
      <point x="416" y="-136" type="curve"/>
      <point x="424" y="-106" type="line"/>
      <point x="315" y="-106"/>
      <point x="259" y="-74"/>
      <point x="259" y="-4" type="curve" smooth="yes"/>
      <point x="259" y="80"/>
      <point x="333" y="168"/>
    </contour>
  </outline>
</glyph>
<glyph name="cedilla" format="2">
  <advance width="758"/>
  <unicode hex="00B8"/>
  <anchor x="375" y="34.0" name="_bottom"/>
  <outline>
    <contour>
      <point x="401" y="4" type="line"/>
      <point x="285" y="4" type="line"/>
      <point x="245" y="-98" type="line"/>
      <point x="272" y="-98" type="line" smooth="yes"/>
      <point x="331" y="-98"/>
      <point x="350" y="-114"/>
      <point x="350" y="-139" type="curve" smooth="yes"/>
      <point x="350" y="-166"/>
      <point x="334" y="-182"/>
      <point x="306" y="-182" type="curve" smooth="yes"/>
      <point x="274" y="-182"/>
      <point x="244" y="-170"/>
      <point x="209" y="-142" type="curve"/>
      <point x="151" y="-186" type="line"/>
      <point x="194" y="-218"/>
      <point x="251" y="-237"/>
      <point x="335" y="-237" type="curve" smooth="yes"/>
      <point x="440" y="-237"/>
      <point x="514" y="-208"/>
      <point x="514" y="-140" type="curve" smooth="yes"/>
      <point x="514" y="-86"/>
      <point x="450" y="-54"/>
      <point x="341" y="-60" type="curve"/>
      <point x="312" y="-72"/>
      <point x="348" y="-77"/>
      <point x="352" y="-72" type="curve"/>
    </contour>
  </outline>
</glyph>
<glyph name="dcroat" format="2">
  <advance width="861"/>
  <unicode hex="0111"/>
  <outline>
    <contour>
      <point x="864" y="645" type="line"/>
      <point x="312" y="645" type="line"/>
      <point x="312" y="582" type="line"/>
      <point x="864" y="582" type="line"/>
    </contour>
    <contour>
      <point x="326" y="526" type="curve" smooth="yes"/>
      <point x="150" y="526"/>
      <point x="26" y="412"/>
      <point x="26" y="251" type="curve" smooth="yes"/>
      <point x="26" y="92"/>
      <point x="140" y="-12"/>
      <point x="316" y="-12" type="curve" smooth="yes"/>
      <point x="451" y="-12"/>
      <point x="510" y="47"/>
      <point x="576" y="166" type="curve"/>
      <point x="575" y="168"/>
      <point x="536" y="202"/>
      <point x="535" y="204" type="curve"/>
      <point x="497" y="118"/>
      <point x="468" y="64"/>
      <point x="412" y="64" type="curve" smooth="yes"/>
      <point x="356" y="64"/>
      <point x="332" y="133"/>
      <point x="332" y="251" type="curve" smooth="yes"/>
      <point x="332" y="372"/>
      <point x="357" y="450"/>
      <point x="423" y="450" type="curve" smooth="yes"/>
      <point x="484" y="450"/>
      <point x="507" y="404"/>
      <point x="537" y="322" type="curve"/>
      <point x="537" y="324"/>
      <point x="591" y="336"/>
      <point x="591" y="337" type="curve"/>
      <point x="554" y="466"/>
      <point x="476" y="526"/>
    </contour>
    <contour>
      <point x="503" y="740" type="line"/>
      <point x="503" y="109" type="line"/>
      <point x="516" y="120" type="line"/>
      <point x="516" y="0" type="line"/>
      <point x="850" y="0" type="line"/>
      <point x="850" y="55" type="line"/>
      <point x="842" y="56" type="line"/>
      <point x="814" y="59"/>
      <point x="802" y="64"/>
      <point x="802" y="87" type="curve" smooth="yes"/>
      <point x="802" y="740" type="line"/>
    </contour>
  </outline>
</glyph>
<glyph name="Hbar" format="2">
  <advance width="1031"/>
  <unicode hex="0126"/>
  <outline>
    <contour>
      <point x="25" y="488" type="line"/>
      <point x="1015" y="488" type="line"/>
      <point x="1015" y="546" type="line"/>
      <point x="25" y="546" type="line"/>
    </contour>
    <contour>
      <point x="214" y="386" type="line"/>
      <point x="214" y="326" type="line"/>
      <point x="765" y="326" type="line"/>
      <point x="765" y="386" type="line"/>
    </contour>
    <contour>
      <point x="25" y="0" type="line"/>
      <point x="482" y="0" type="line"/>
      <point x="482" y="56" type="line"/>
      <point x="473" y="56" type="line" smooth="yes"/>
      <point x="446" y="56"/>
      <point x="413" y="59"/>
      <point x="413" y="66" type="curve" smooth="yes"/>
      <point x="413" y="644" type="line" smooth="yes"/>
      <point x="413" y="651"/>
      <point x="446" y="654"/>
      <point x="473" y="654" type="curve" smooth="yes"/>
      <point x="482" y="654" type="line"/>
      <point x="482" y="710" type="line"/>
      <point x="25" y="710" type="line"/>
      <point x="25" y="654" type="line"/>
      <point x="37" y="654" type="line" smooth="yes"/>
      <point x="70" y="654"/>
      <point x="95" y="647"/>
      <point x="95" y="618" type="curve" smooth="yes"/>
      <point x="95" y="92" type="line" smooth="yes"/>
      <point x="95" y="63"/>
      <point x="71" y="56"/>
      <point x="37" y="56" type="curve" smooth="yes"/>
      <point x="25" y="56" type="line"/>
    </contour>
    <contour>
      <point x="557" y="0" type="line"/>
      <point x="1015" y="0" type="line"/>
      <point x="1015" y="56" type="line"/>
      <point x="1002" y="56" type="line" smooth="yes"/>
      <point x="969" y="56"/>
      <point x="944" y="63"/>
      <point x="944" y="92" type="curve" smooth="yes"/>
      <point x="944" y="618" type="line" smooth="yes"/>
      <point x="944" y="647"/>
      <point x="969" y="654"/>
      <point x="1002" y="654" type="curve" smooth="yes"/>
      <point x="1015" y="654" type="line"/>
      <point x="1015" y="710" type="line"/>
      <point x="557" y="710" type="line"/>
      <point x="557" y="654" type="line"/>
      <point x="567" y="654" type="line" smooth="yes"/>
      <point x="594" y="654"/>
      <point x="626" y="651"/>
      <point x="626" y="644" type="curve" smooth="yes"/>
      <point x="626" y="66" type="line" smooth="yes"/>
      <point x="626" y="59"/>
      <point x="594" y="56"/>
      <point x="567" y="56" type="curve" smooth="yes"/>
      <point x="557" y="56" type="line"/>
    </contour>
  </outline>
</glyph>
<glyph name="lslash" format="2">
  <advance width="486"/>
  <unicode hex="0142"/>
  <outline>
    <contour>
      <point x="17" y="220" type="line"/>
      <point x="476" y="456" type="line"/>
      <point x="476" y="526" type="line"/>
      <point x="17" y="290" type="line"/>
    </contour>
    <component base="l" xOffset="79"/>
  </outline>
</glyph>
<glyph name="mu" format="2">
  <advance width="992"/>
  <unicode hex="03BC"/>
  <outline>
    <contour>
      <point x="741" y="-10" type="curve" smooth="yes"/>
      <point x="881" y="-10"/>
      <point x="951" y="38"/>
      <point x="984" y="103" type="curve"/>
      <point x="884" y="132" type="line"/>
      <point x="870" y="92"/>
      <point x="856" y="70"/>
      <point x="828" y="70" type="curve" smooth="yes"/>
      <point x="803" y="70"/>
      <point x="795" y="82"/>
      <point x="795" y="111" type="curve" smooth="yes"/>
      <point x="795" y="516" type="line"/>
      <point x="495" y="516" type="line"/>
      <point x="495" y="120" type="line"/>
      <point x="509" y="116" type="line" smooth="yes"/>
      <point x="519" y="34"/>
      <point x="602" y="-10"/>
    </contour>
    <contour>
      <point x="99" y="138" type="curve"/>
      <point x="145" y="28"/>
      <point x="224" y="-10"/>
      <point x="328" y="-10" type="curve" smooth="yes"/>
      <point x="415" y="-10"/>
      <point x="480" y="40"/>
      <point x="535" y="136" type="curve"/>
      <point x="502" y="176" type="line"/>
      <point x="478" y="110"/>
      <point x="446" y="71"/>
      <point x="406" y="71" type="curve" smooth="yes"/>
      <point x="371" y="71"/>
      <point x="358" y="96"/>
      <point x="358" y="158" type="curve" smooth="yes"/>
      <point x="358" y="516" type="line"/>
      <point x="58" y="516" type="line"/>
      <point x="58" y="-250" type="line"/>
      <point x="358" y="-250" type="line"/>
      <point x="358" y="-114"/>
      <point x="137" y="-48"/>
      <point x="118" y="154" type="curve"/>
      <point x="101" y="182"/>
      <point x="115" y="146"/>
    </contour>
  </outline>
</glyph>
<glyph name="quoteright" format="2">
  <advance width="291"/>
  <unicode hex="2019"/>
  <outline>
    <contour>
      <point x="116" y="412" type="line"/>
      <point x="203" y="473"/>
      <point x="251" y="547"/>
      <point x="251" y="622" type="curve" smooth="yes"/>
      <point x="251" y="685"/>
      <point x="216" y="720"/>
      <point x="146" y="720" type="curve" smooth="yes"/>
      <point x="76" y="720"/>
      <point x="45" y="685"/>
      <point x="45" y="640" type="curve" smooth="yes"/>
      <point x="45" y="595"/>
      <point x="76" y="561"/>
      <point x="138" y="561" type="curve" smooth="yes"/>
      <point x="178" y="561"/>
      <point x="198" y="569"/>
      <point x="213" y="585" type="curve"/>
      <point x="203" y="589" type="line"/>
      <point x="196" y="546"/>
      <point x="126" y="500"/>
      <point x="60" y="476" type="curve"/>
    </contour>
  </outline>
</glyph>
<glyph name="kip" format="2">
  <advance width="707"/>
  <unicode hex="20AD"/>
  <outline>
    <contour>
      <point x="2" y="406" type="line"/>
      <point x="2" y="342" type="line"/>
      <point x="699" y="342" type="line"/>
      <point x="699" y="406" type="line"/>
    </contour>
    <contour>
      <point x="2" y="0" type="line"/>
      <point x="340" y="0" type="line" smooth="yes"/>
      <point x="340" y="56" type="line" smooth="yes"/>
      <point x="336" y="56" type="line" smooth="yes"/>
      <point x="324" y="56"/>
      <point x="315" y="59"/>
      <point x="315" y="64" type="curve" smooth="yes"/>
      <point x="315" y="644" type="line" smooth="yes"/>
      <point x="315" y="651"/>
      <point x="334" y="654"/>
      <point x="353" y="654" type="curve" smooth="yes"/>
      <point x="367" y="654" type="line" smooth="yes"/>
      <point x="367" y="710" type="line" smooth="yes"/>
      <point x="2" y="710" type="line"/>
      <point x="2" y="654" type="line"/>
      <point x="10" y="654" type="line" smooth="yes"/>
      <point x="30" y="654"/>
      <point x="45" y="647"/>
      <point x="45" y="623" type="curve" smooth="yes"/>
      <point x="45" y="87" type="line" smooth="yes"/>
      <point x="45" y="63"/>
      <point x="30" y="56"/>
      <point x="10" y="56" type="curve" smooth="yes"/>
      <point x="2" y="56" type="line"/>
    </contour>
    <contour>
      <point x="710" y="56" type="line"/>
      <point x="709" y="56" type="line" smooth="yes"/>
      <point x="692" y="56"/>
      <point x="679" y="62"/>
      <point x="673" y="85" type="curve" smooth="yes"/>
      <point x="544" y="443" type="line"/>
      <point x="471" y="357" type="line"/>
      <point x="625" y="620" type="line" smooth="yes"/>
      <point x="645" y="647"/>
      <point x="658" y="654"/>
      <point x="683" y="654" type="curve" smooth="yes"/>
      <point x="693" y="654" type="line"/>
      <point x="693" y="710" type="line"/>
      <point x="450" y="710" type="line"/>
      <point x="450" y="654" type="line"/>
      <point x="465" y="654" type="line" smooth="yes"/>
      <point x="486" y="654"/>
      <point x="509" y="651"/>
      <point x="508" y="644" type="curve"/>
      <point x="333" y="366" type="line"/>
      <point x="332" y="365" type="line"/>
      <point x="400" y="64" type="line"/>
      <point x="400" y="59"/>
      <point x="389" y="56"/>
      <point x="377" y="56" type="curve" smooth="yes"/>
      <point x="373" y="56" type="line"/>
      <point x="373" y="0" type="line"/>
      <point x="710" y="0" type="line"/>
    </contour>
  </outline>
</glyph>
<glyph name="cedi" format="2">
  <advance width="707"/>
  <unicode hex="20B5"/>
  <outline>
    <contour>
      <point x="425" y="710" type="curve" smooth="yes"/>
      <point x="191" y="710"/>
      <point x="13" y="572"/>
      <point x="13" y="355" type="curve" smooth="yes"/>
      <point x="13" y="138"/>
      <point x="183" y="0"/>
      <point x="417" y="0" type="curve" smooth="yes"/>
      <point x="588" y="0"/>
      <point x="673" y="90"/>
      <point x="709" y="228" type="curve"/>
      <point x="606" y="252" type="line"/>
      <point x="579" y="137"/>
      <point x="528" y="66"/>
      <point x="448" y="66" type="curve" smooth="yes"/>
      <point x="317" y="66"/>
      <point x="265" y="165"/>
      <point x="265" y="355" type="curve" smooth="yes"/>
      <point x="265" y="542"/>
      <point x="302" y="650"/>
      <point x="445" y="650" type="curve" smooth="yes"/>
      <point x="518" y="650"/>
      <point x="559" y="620"/>
      <point x="588" y="586" type="curve"/>
      <point x="625" y="600"/>
      <point x="642" y="644"/>
      <point x="538" y="642" type="curve"/>
      <point x="538" y="525" type="line"/>
      <point x="705" y="525" type="line"/>
      <point x="705" y="653" type="line"/>
      <point x="678" y="670"/>
      <point x="584" y="710"/>
    </contour>
    <contour>
      <point x="351" y="790" type="line"/>
      <point x="351" y="678" type="line"/>
      <point x="370" y="670" type="line"/>
      <point x="370" y="42" type="line"/>
      <point x="351" y="28" type="line"/>
      <point x="351" y="-120" type="line"/>
      <point x="486" y="-120" type="line"/>
      <point x="486" y="28" type="line"/>
      <point x="466" y="40" type="line"/>
      <point x="466" y="674" type="line"/>
      <point x="486" y="684" type="line"/>
      <point x="486" y="790" type="line"/>
    </contour>
  </outline>
</glyph>
<glyph name="partialdiff" format="2">
  <advance width="750"/>
  <unicode hex="2202"/>
  <outline>
    <contour>
      <point x="320" y="-11" type="curve" smooth="yes"/>
      <point x="569" y="-11"/>
      <point x="733" y="183"/>
      <point x="733" y="434" type="curve" smooth="yes"/>
      <point x="733" y="647"/>
      <point x="577" y="746"/>
      <point x="368" y="746" type="curve" smooth="yes"/>
      <point x="281" y="746"/>
      <point x="198" y="730"/>
      <point x="129" y="702" type="curve"/>
      <point x="170" y="646" type="line"/>
      <point x="218" y="667"/>
      <point x="263" y="682"/>
      <point x="314" y="682" type="curve" smooth="yes"/>
      <point x="409" y="682"/>
      <point x="452" y="632"/>
      <point x="452" y="476" type="curve" smooth="yes"/>
      <point x="452" y="262"/>
      <point x="408" y="50"/>
      <point x="345" y="50" type="curve" smooth="yes"/>
      <point x="310" y="50"/>
      <point x="299" y="96"/>
      <point x="299" y="202" type="curve" smooth="yes"/>
      <point x="299" y="350"/>
      <point x="341" y="462"/>
      <point x="422" y="462" type="curve" smooth="yes"/>
      <point x="458" y="462"/>
      <point x="499" y="435"/>
      <point x="523" y="397" type="curve"/>
      <point x="523" y="399"/>
      <point x="516" y="446"/>
      <point x="529" y="479" type="curve"/>
      <point x="522" y="494"/>
      <point x="492" y="523"/>
      <point x="394" y="523" type="curve" smooth="yes"/>
      <point x="192" y="523"/>
      <point x="17" y="374"/>
      <point x="17" y="211" type="curve" smooth="yes"/>
      <point x="17" y="85"/>
      <point x="105" y="-11"/>
    </contour>
  </outline>
</glyph>
<glyph name="Pcircle" format="2">
  <advance width="1088"/>
  <unicode hex="24C5"/>
  <outline>
    <contour>
      <point x="543" y="26" type="curve" smooth="yes"/>
      <point x="313" y="26"/>
      <point x="157" y="170"/>
      <point x="157" y="355" type="curve" smooth="yes"/>
      <point x="157" y="540"/>
      <point x="313" y="684"/>
      <point x="543" y="684" type="curve" smooth="yes"/>
      <point x="774" y="684"/>
      <point x="931" y="540"/>
      <point x="931" y="355" type="curve" smooth="yes"/>
      <point x="931" y="170"/>
      <point x="774" y="26"/>
    </contour>
    <contour>
      <point x="543" y="-34" type="curve" smooth="yes"/>
      <point x="839" y="-34"/>
      <point x="1053" y="135"/>
      <point x="1053" y="355" type="curve" smooth="yes"/>
      <point x="1053" y="575"/>
      <point x="839" y="744"/>
      <point x="543" y="744" type="curve" smooth="yes"/>
      <point x="249" y="744"/>
      <point x="34" y="575"/>
      <point x="34" y="355" type="curve" smooth="yes"/>
      <point x="34" y="135"/>
      <point x="249" y="-34"/>
    </contour>
    <contour>
      <point x="585" y="198" type="line"/>
      <point x="575" y="198" type="line" smooth="yes"/>
      <point x="554" y="198"/>
      <point x="540" y="200"/>
      <point x="540" y="204" type="curve" smooth="yes"/>
      <point x="540" y="297" type="line"/>
      <point x="587" y="297" type="line" smooth="yes"/>
      <point x="739" y="297"/>
      <point x="817" y="349"/>
      <point x="817" y="430" type="curve" smooth="yes"/>
      <point x="817" y="510"/>
      <point x="746" y="557"/>
      <point x="591" y="557" type="curve" smooth="yes"/>
      <point x="319" y="557" type="line"/>
      <point x="319" y="511" type="line"/>
      <point x="324" y="511" type="line" smooth="yes"/>
      <point x="344" y="511"/>
      <point x="363" y="507"/>
      <point x="363" y="491" type="curve" smooth="yes"/>
      <point x="363" y="218" type="line" smooth="yes"/>
      <point x="363" y="202"/>
      <point x="344" y="198"/>
      <point x="324" y="198" type="curve" smooth="yes"/>
      <point x="319" y="198" type="line"/>
      <point x="319" y="152" type="line"/>
      <point x="585" y="152" type="line"/>
    </contour>
    <contour>
      <point x="540" y="506" type="line"/>
      <point x="562" y="506" type="line" smooth="yes"/>
      <point x="611" y="506"/>
      <point x="640" y="485"/>
      <point x="640" y="430" type="curve" smooth="yes"/>
      <point x="640" y="375"/>
      <point x="611" y="347"/>
      <point x="558" y="347" type="curve" smooth="yes"/>
      <point x="540" y="347" type="line"/>
    </contour>
  </outline>
</glyph>
<glyph name="uni25B9" format="2">
  <advance width="724"/>
  <unicode hex="25B9"/>
  <outline>
    <contour>
      <point x="162" y="545" type="line"/>
      <point x="162" y="10" type="line"/>
      <point x="639" y="277" type="line"/>
    </contour>
    <contour>
      <point x="213" y="474" type="line"/>
      <point x="206" y="470" type="line"/>
      <point x="559" y="274" type="line"/>
      <point x="559" y="281" type="line"/>
      <point x="206" y="84" type="line"/>
      <point x="213" y="80" type="line"/>
    </contour>
  </outline>
</glyph>
<glyph name="uni25BF" format="2">
  <advance width="790"/>
  <unicode hex="25BF"/>
  <outline>
    <contour>
      <point x="737" y="464" type="line"/>
      <point x="53" y="464" type="line"/>
      <point x="394" y="91" type="line"/>
    </contour>
    <contour>
      <point x="646" y="426" type="line"/>
      <point x="642" y="431" type="line"/>
      <point x="390" y="155" type="line"/>
      <point x="400" y="155" type="line"/>
      <point x="148" y="431" type="line"/>
      <point x="142" y="426" type="line"/>
    </contour>
  </outline>
</glyph>
<glyph name="uni25C3" format="2">
  <advance width="969"/>
  <unicode hex="25C3"/>
  <outline>
    <contour>
      <point x="898" y="-40" type="line"/>
      <point x="898" y="754" type="line"/>
      <point x="21" y="357" type="line"/>
    </contour>
    <contour>
      <point x="846" y="24" type="line"/>
      <point x="863" y="24" type="line"/>
      <point x="100" y="368" type="line"/>
      <point x="100" y="346" type="line"/>
      <point x="858" y="688" type="line"/>
      <point x="846" y="690" type="line"/>
    </contour>
  </outline>
</glyph>
<glyph name="uni27F7" format="2">
  <advance width="1653"/>
  <unicode hex="27F7"/>
  <outline>
    <contour>
      <point x="1345" y="335" type="line"/>
      <point x="1193" y="192" type="line"/>
      <point x="1206" y="179" type="line"/>
      <point x="1587" y="346" type="line"/>
      <point x="1587" y="360" type="line"/>
      <point x="1206" y="527" type="line"/>
      <point x="1193" y="514" type="line"/>
      <point x="1345" y="371" type="line"/>
      <point x="307" y="371" type="line"/>
      <point x="460" y="514" type="line"/>
      <point x="447" y="527" type="line"/>
      <point x="65" y="360" type="line"/>
      <point x="65" y="346" type="line"/>
      <point x="447" y="179" type="line"/>
      <point x="460" y="192" type="line"/>
      <point x="307" y="335" type="line"/>
    </contour>
  </outline>
</glyph>
<glyph name="breve.uc" format="2">
  <advance width="631"/>
  <anchor x="315" y="694.0" name="_top"/>
  <outline>
    <contour>
      <point x="315" y="752" type="curve" smooth="yes"/>
      <point x="196" y="752"/>
      <point x="102" y="802"/>
      <point x="96" y="908" type="curve"/>
      <point x="226" y="908" type="line"/>
      <point x="233" y="864"/>
      <point x="264" y="849"/>
      <point x="319" y="849" type="curve" smooth="yes"/>
      <point x="374" y="849"/>
      <point x="404" y="864"/>
      <point x="409" y="908" type="curve"/>
      <point x="534" y="908" type="line"/>
      <point x="528" y="803"/>
      <point x="434" y="752"/>
    </contour>
  </outline>
</glyph>
<glyph name="circumflex_hook" format="2">
  <advance width="642"/>
  <anchor x="309" y="559.0" name="_top"/>
  <outline>
    <contour>
      <point x="434" y="806" type="line"/>
      <point x="440" y="848"/>
      <point x="485" y="888"/>
      <point x="608" y="888" type="curve" smooth="yes"/>
      <point x="718" y="888"/>
      <point x="776" y="858"/>
      <point x="776" y="812" type="curve"/>
      <point x="776" y="758"/>
      <point x="712" y="734"/>
      <point x="619" y="729" type="curve"/>
      <point x="655" y="754" type="line"/>
      <point x="655" y="704" type="line"/>
      <point x="540" y="704" type="line"/>
      <point x="540" y="759" type="line"/>
      <point x="604" y="762"/>
      <point x="630" y="778"/>
      <point x="630" y="808" type="curve"/>
      <point x="630" y="829"/>
      <point x="621" y="842"/>
      <point x="597" y="842" type="curve" smooth="yes"/>
      <point x="576" y="842"/>
      <point x="563" y="828"/>
      <point x="558" y="806" type="curve"/>
    </contour>
    <component base="circumflex" xOffset="92"/>
  </outline>
</glyph>
<glyph name="florin.proportional" format="2">
  <advance width="660"/>
  <outline>
    <contour>
      <point x="68" y="503" type="line"/>
      <point x="58" y="440" type="line"/>
      <point x="607" y="440" type="line"/>
      <point x="617" y="503" type="line"/>
    </contour>
    <contour>
      <point x="373" y="76" type="curve" smooth="yes"/>
      <point x="462" y="569" type="line" smooth="yes"/>
      <point x="475" y="658"/>
      <point x="516" y="684"/>
      <point x="568" y="684" type="curve" smooth="yes"/>
      <point x="607" y="684"/>
      <point x="634" y="676"/>
      <point x="656" y="666" type="curve"/>
      <point x="665" y="734" type="line"/>
      <point x="633" y="746"/>
      <point x="583" y="754"/>
      <point x="507" y="754" type="curve" smooth="yes"/>
      <point x="327" y="754"/>
      <point x="220" y="694"/>
      <point x="195" y="564" type="curve" smooth="yes"/>
      <point x="107" y="62" type="line" smooth="yes"/>
      <point x="74" y="-128"/>
      <point x="29" y="-167"/>
      <point x="-25" y="-167" type="curve" smooth="yes"/>
      <point x="-63" y="-167"/>
      <point x="-95" y="-153"/>
      <point x="-111" y="-149" type="curve"/>
      <point x="-117" y="-218" type="line"/>
      <point x="-97" y="-227"/>
      <point x="-49" y="-236"/>
      <point x="7" y="-236" type="curve" smooth="yes"/>
      <point x="193" y="-236"/>
      <point x="329" y="-146"/>
    </contour>
  </outline>
</glyph>
<glyph name="four.old" format="2">
  <advance width="707"/>
  <outline>
    <contour>
      <point x="25" y="26" type="line"/>
      <point x="706" y="26" type="line"/>
      <point x="706" y="136" type="line"/>
      <point x="133" y="136" type="line"/>
      <point x="92" y="77" type="line"/>
      <point x="389" y="488" type="line"/>
      <point x="409" y="548" type="line"/>
      <point x="325" y="548" type="line"/>
      <point x="25" y="130" type="line"/>
    </contour>
    <contour>
      <point x="623" y="-142" type="line"/>
      <point x="623" y="548" type="line"/>
      <point x="365" y="548" type="line"/>
      <point x="344" y="483" type="line"/>
      <point x="344" y="-142" type="line"/>
    </contour>
  </outline>
</glyph>
<glyph name="g.alt" format="2">
  <advance width="828"/>
  <guideline x="111" y="269" angle="90" identifier="Gb34gQ4TYr"/>
  <outline>
    <contour>
      <point x="473" y="-47" type="line" smooth="yes"/>
      <point x="473" y="-155"/>
      <point x="426" y="-191"/>
      <point x="329.0" y="-191.0" type="curve" smooth="yes"/>
      <point x="268" y="-191"/>
      <point x="224" y="-177"/>
      <point x="204" y="-151" type="curve"/>
      <point x="190" y="-180"/>
      <point x="238" y="-192"/>
      <point x="269" y="-194" type="curve"/>
      <point x="269" y="-56" type="line"/>
      <point x="50" y="-56" type="line"/>
      <point x="50" y="-166" type="line"/>
      <point x="100" y="-200"/>
      <point x="180" y="-236"/>
      <point x="332.0" y="-236.0" type="curve" smooth="yes"/>
      <point x="550" y="-236"/>
      <point x="773" y="-180"/>
      <point x="773" y="-8" type="curve" smooth="yes"/>
      <point x="773" y="521" type="line"/>
      <point x="550" y="521" type="line"/>
      <point x="486" y="417" type="line"/>
      <point x="473" y="420" type="line"/>
    </contour>
    <contour>
      <point x="325" y="262" type="curve" smooth="yes"/>
      <point x="325" y="399"/>
      <point x="348" y="445"/>
      <point x="400" y="445" type="curve" smooth="yes"/>
      <point x="439" y="445"/>
      <point x="466" y="417"/>
      <point x="496" y="347" type="curve"/>
      <point x="496" y="430" type="line"/>
      <point x="455" y="504"/>
      <point x="379" y="534"/>
      <point x="278" y="534" type="curve" smooth="yes"/>
      <point x="118" y="534"/>
      <point x="20" y="421"/>
      <point x="20" y="262" type="curve" smooth="yes"/>
      <point x="20" y="103"/>
      <point x="118" y="-10"/>
      <point x="278" y="-10" type="curve" smooth="yes"/>
      <point x="379" y="-10"/>
      <point x="455" y="29"/>
      <point x="496" y="103" type="curve"/>
      <point x="496" y="177" type="line"/>
      <point x="466" y="107"/>
      <point x="439" y="79"/>
      <point x="400" y="79" type="curve" smooth="yes"/>
      <point x="348" y="79"/>
      <point x="325" y="125"/>
    </contour>
  </outline>
</glyph>
<glyph name="heartsuitwhite" format="2">
  <advance width="1143"/>
  <outline>
    <contour>
      <point x="566" y="495" type="curve"/>
      <point x="579" y="495" type="line"/>
      <point x="618" y="584"/>
      <point x="697" y="671"/>
      <point x="821" y="671" type="curve" smooth="yes"/>
      <point x="937" y="671"/>
      <point x="1004" y="613"/>
      <point x="1004" y="531" type="curve" smooth="yes"/>
      <point x="1004" y="448"/>
      <point x="947" y="390"/>
      <point x="846" y="296" type="curve" smooth="yes"/>
      <point x="554" y="24" type="line"/>
      <point x="589" y="24" type="line"/>
      <point x="297" y="296" type="line" smooth="yes"/>
      <point x="199" y="388"/>
      <point x="140" y="448"/>
      <point x="140" y="531" type="curve" smooth="yes"/>
      <point x="140" y="613"/>
      <point x="206" y="671"/>
      <point x="323" y="671" type="curve" smooth="yes"/>
      <point x="444" y="671"/>
      <point x="525" y="584"/>
    </contour>
    <contour>
      <point x="587" y="-10" type="line"/>
      <point x="890" y="273" type="line" smooth="yes"/>
      <point x="998" y="375"/>
      <point x="1059" y="437"/>
      <point x="1059" y="535" type="curve" smooth="yes"/>
      <point x="1059" y="632"/>
      <point x="974" y="710"/>
      <point x="826" y="710" type="curve" smooth="yes"/>
      <point x="707" y="710"/>
      <point x="621" y="657"/>
      <point x="572" y="569" type="curve"/>
      <point x="522" y="657"/>
      <point x="437" y="710"/>
      <point x="317" y="710" type="curve" smooth="yes"/>
      <point x="169" y="710"/>
      <point x="84" y="632"/>
      <point x="84" y="535" type="curve" smooth="yes"/>
      <point x="84" y="437"/>
      <point x="145" y="375"/>
      <point x="254" y="273" type="curve" smooth="yes"/>
      <point x="557" y="-10" type="line"/>
    </contour>
  </outline>
</glyph>
<glyph name="seven.den" format="2">
  <advance width="456"/>
  <outline>
    <contour>
      <point x="175" y="278" type="line" smooth="yes"/>
      <point x="129" y="278"/>
      <point x="112" y="275"/>
      <point x="109" y="252" type="curve" smooth="yes"/>
      <point x="103" y="206" type="line"/>
      <point x="38" y="206" type="line"/>
      <point x="38" y="360" type="line"/>
      <point x="435" y="360" type="line"/>
      <point x="435" y="290" type="line"/>
      <point x="353" y="205"/>
      <point x="312" y="145"/>
      <point x="310" y="0" type="curve"/>
      <point x="125" y="0" type="line"/>
      <point x="139" y="127"/>
      <point x="303" y="253"/>
      <point x="380" y="298" type="curve"/>
      <point x="401" y="278" type="line"/>
    </contour>
  </outline>
</glyph>
<glyph name="tilde.uc" format="2">
  <advance width="630"/>
  <anchor x="315" y="694.0" name="_top"/>
  <outline>
    <contour>
      <point x="398" y="758" type="curve" smooth="yes"/>
      <point x="488" y="758"/>
      <point x="545" y="808"/>
      <point x="569" y="888" type="curve"/>
      <point x="459" y="909" type="line"/>
      <point x="447" y="875"/>
      <point x="432" y="857"/>
      <point x="404" y="857" type="curve" smooth="yes"/>
      <point x="357" y="857"/>
      <point x="327" y="908"/>
      <point x="234" y="908" type="curve" smooth="yes"/>
      <point x="137" y="908"/>
      <point x="89" y="861"/>
      <point x="67" y="778" type="curve"/>
      <point x="178" y="758" type="line"/>
      <point x="187" y="793"/>
      <point x="201" y="810"/>
      <point x="228" y="810" type="curve" smooth="yes"/>
      <point x="268" y="810"/>
      <point x="299" y="758"/>
    </contour>
  </outline>
</glyph>
